<?xml version="1.0" encoding="UTF-8"?>
<svg width="2262px" height="727px" viewBox="0 0 2262 727" version="1.1" xmlns="http://www.w3.org/2000/svg" xmlns:xlink="http://www.w3.org/1999/xlink">
    <title>Group</title>
    <g id="new-logo" stroke="none" stroke-width="1" fill="none" fill-rule="evenodd">
        <g id="Artboard-Copy-3" transform="translate(-239.000000, -207.000000)">
            <g id="Group" transform="translate(239.000000, 207.000000)">
                <g id="logo2">
                    <rect id="Rectangle" fill="#FF4019" x="0" y="0" width="727" height="727"></rect>
                    <path d="M585,182 L585,233 L411.5,233 L411.5,309 L585,309 L585,360 L411.5,360 L411.5,544.5 L360.5,544.5 L360.5,182.5 L361,182.5 L361,182 L585,182 Z M348,309 L348,360 L191.999,360 L192,493 L348,493 L348,544 L141,544 L141,309 L348,309 Z" id="cf-shape" fill="#FFFFFF"></path>
                </g>
                <path d="M1018.366,317.704 C1031.302,317.704 1043.16,315.744 1053.94,311.824 C1064.72,307.904 1074.128,302.22 1082.164,294.772 C1090.2,287.324 1096.668,278.308 1101.568,267.724 C1106.468,257.14 1109.506,245.282 1110.682,232.15 L1065.994,232.15 C1064.23,246.262 1059.379,257.63 1051.441,266.254 C1043.503,274.878 1032.478,279.19 1018.366,279.19 C1007.978,279.19 999.158,277.181 991.906,273.163 C984.654,269.145 978.774,263.804 974.266,257.14 C969.758,250.476 966.475,242.979 964.417,234.649 C962.359,226.319 961.33,217.744 961.33,208.924 C961.33,199.712 962.359,190.794 964.417,182.17 C966.475,173.546 969.758,165.853 974.266,159.091 C978.774,152.329 984.654,146.939 991.906,142.921 C999.158,138.903 1007.978,136.894 1018.366,136.894 C1024.05,136.894 1029.489,137.825 1034.683,139.687 C1039.877,141.549 1044.532,144.146 1048.648,147.478 C1052.764,150.81 1056.194,154.681 1058.938,159.091 C1061.682,163.501 1063.446,168.352 1064.23,173.644 L1108.918,173.644 C1107.546,161.492 1104.214,150.712 1098.922,141.304 C1093.63,131.896 1086.917,124.007 1078.783,117.637 C1070.649,111.267 1061.437,106.416 1051.147,103.084 C1040.857,99.752 1029.93,98.086 1018.366,98.086 C1002.294,98.086 987.839,100.928 975.001,106.612 C962.163,112.296 951.334,120.136 942.514,130.132 C933.694,140.128 926.932,151.839 922.228,165.265 C917.524,178.691 915.172,193.244 915.172,208.924 C915.172,224.212 917.524,238.471 922.228,251.701 C926.932,264.931 933.694,276.446 942.514,286.246 C951.334,296.046 962.163,303.739 975.001,309.325 C987.839,314.911 1002.294,317.704 1018.366,317.704 Z M1209.10282,316.822 C1221.05882,316.822 1231.88782,314.96 1241.58982,311.236 C1251.29182,307.512 1259.57282,302.171 1266.43282,295.213 C1273.29282,288.255 1278.58482,279.876 1282.30882,270.076 C1286.03282,260.276 1287.89482,249.3 1287.89482,237.148 C1287.89482,224.996 1286.03282,213.971 1282.30882,204.073 C1278.58482,194.175 1273.29282,185.747 1266.43282,178.789 C1259.57282,171.831 1251.29182,166.441 1241.58982,162.619 C1231.88782,158.797 1221.05882,156.886 1209.10282,156.886 C1197.14682,156.886 1186.36682,158.797 1176.76282,162.619 C1167.15882,166.441 1158.92682,171.831 1152.06682,178.789 C1145.20682,185.747 1139.91482,194.175 1136.19082,204.073 C1132.46682,213.971 1130.60482,224.996 1130.60482,237.148 C1130.60482,249.3 1132.46682,260.276 1136.19082,270.076 C1139.91482,279.876 1145.20682,288.255 1152.06682,295.213 C1158.92682,302.171 1167.15882,307.512 1176.76282,311.236 C1186.36682,314.96 1197.14682,316.822 1209.10282,316.822 Z M1209.10282,285.658 C1202.04682,285.658 1196.16682,284.286 1191.46282,281.542 C1186.75882,278.798 1182.98582,275.123 1180.14382,270.517 C1177.30182,265.911 1175.29282,260.717 1174.11682,254.935 C1172.94082,249.153 1172.35282,243.224 1172.35282,237.148 C1172.35282,231.072 1172.94082,225.094 1174.11682,219.214 C1175.29282,213.334 1177.30182,208.14 1180.14382,203.632 C1182.98582,199.124 1186.75882,195.449 1191.46282,192.607 C1196.16682,189.765 1202.04682,188.344 1209.10282,188.344 C1216.15882,188.344 1222.08782,189.765 1226.88982,192.607 C1231.69182,195.449 1235.51382,199.124 1238.35582,203.632 C1241.19782,208.14 1243.20682,213.334 1244.38282,219.214 C1245.55882,225.094 1246.14682,231.072 1246.14682,237.148 C1246.14682,243.224 1245.55882,249.153 1244.38282,254.935 C1243.20682,260.717 1241.19782,265.911 1238.35582,270.517 C1235.51382,275.123 1231.69182,278.798 1226.88982,281.542 C1222.08782,284.286 1216.15882,285.658 1209.10282,285.658 Z M1355.44564,313 L1355.44564,103.084 L1313.69764,103.084 L1313.69764,313 L1355.44564,313 Z M1428.87647,313 L1428.87647,103.084 L1387.12847,103.084 L1387.12847,313 L1428.87647,313 Z M1529.64929,316.822 C1546.89729,316.822 1561.59729,312.902 1573.74929,305.062 C1585.90129,297.222 1594.91729,284.188 1600.79729,265.96 L1564.04729,265.96 C1562.67529,270.664 1558.95129,275.123 1552.87529,279.337 C1546.79929,283.551 1539.54729,285.658 1531.11929,285.658 C1519.35929,285.658 1510.34329,282.62 1504.07129,276.544 C1497.79929,270.468 1494.36929,260.668 1493.78129,247.144 L1603.44329,247.144 C1604.22729,235.384 1603.24729,224.114 1600.50329,213.334 C1597.75929,202.554 1593.30029,192.95 1587.12629,184.522 C1580.95229,176.094 1573.06329,169.381 1563.45929,164.383 C1553.85529,159.385 1542.58529,156.886 1529.64929,156.886 C1518.08529,156.886 1507.55029,158.944 1498.04429,163.06 C1488.53829,167.176 1480.35529,172.811 1473.49529,179.965 C1466.63529,187.119 1461.34329,195.596 1457.61929,205.396 C1453.89529,215.196 1452.03329,225.78 1452.03329,237.148 C1452.03329,248.908 1453.84629,259.688 1457.47229,269.488 C1461.09829,279.288 1466.24329,287.716 1472.90729,294.772 C1479.57129,301.828 1487.70529,307.267 1497.30929,311.089 C1506.91329,314.911 1517.69329,316.822 1529.64929,316.822 Z M1561.69529,220.684 L1493.78129,220.684 C1493.97729,217.744 1494.61429,214.412 1495.69229,210.688 C1496.77029,206.964 1498.63229,203.436 1501.27829,200.104 C1503.92429,196.772 1507.45229,193.979 1511.86229,191.725 C1516.27229,189.471 1521.80929,188.344 1528.47329,188.344 C1538.66529,188.344 1546.26029,191.088 1551.25829,196.576 C1556.25629,202.064 1559.73529,210.1 1561.69529,220.684 Z M1697.74811,316.822 C1717.93611,316.822 1734.49811,311.53 1747.43411,300.946 C1760.37011,290.362 1768.21011,274.976 1770.95411,254.788 L1730.67611,254.788 C1729.30411,264.196 1725.92311,271.693 1720.53311,277.279 C1715.14311,282.865 1707.45011,285.658 1697.45411,285.658 C1690.98611,285.658 1685.49811,284.188 1680.99011,281.248 C1676.48211,278.308 1672.90511,274.535 1670.25911,269.929 C1667.61311,265.323 1665.70211,260.178 1664.52611,254.494 C1663.35011,248.81 1662.76211,243.224 1662.76211,237.736 C1662.76211,232.052 1663.35011,226.319 1664.52611,220.537 C1665.70211,214.755 1667.71111,209.463 1670.55311,204.661 C1673.39511,199.859 1677.07011,195.939 1681.57811,192.901 C1686.08611,189.863 1691.67211,188.344 1698.33611,188.344 C1716.17211,188.344 1726.46211,197.066 1729.20611,214.51 L1770.07211,214.51 C1769.48411,204.71 1767.13211,196.233 1763.01611,189.079 C1758.90011,181.925 1753.55911,175.947 1746.99311,171.145 C1740.42711,166.343 1732.97911,162.766 1724.64911,160.414 C1716.31911,158.062 1707.64611,156.886 1698.63011,156.886 C1686.28211,156.886 1675.30611,158.944 1665.70211,163.06 C1656.09811,167.176 1647.96411,172.909 1641.30011,180.259 C1634.63611,187.609 1629.58911,196.331 1626.15911,206.425 C1622.72911,216.519 1621.01411,227.446 1621.01411,239.206 C1621.01411,250.574 1622.87611,261.011 1626.60011,270.517 C1630.32411,280.023 1635.51811,288.206 1642.18211,295.066 C1648.84611,301.926 1656.93111,307.267 1666.43711,311.089 C1675.94311,314.911 1686.38011,316.822 1697.74811,316.822 Z M1851.14693,314.47 C1855.26293,314.47 1859.47693,314.372 1863.78893,314.176 C1868.10093,313.98 1872.02093,313.588 1875.54893,313 L1875.54893,280.66 C1873.58893,281.052 1871.53093,281.346 1869.37493,281.542 C1867.21893,281.738 1864.96493,281.836 1862.61293,281.836 C1855.55693,281.836 1850.85293,280.66 1848.50093,278.308 C1846.14893,275.956 1844.97293,271.252 1844.97293,264.196 L1844.97293,188.932 L1875.54893,188.932 L1875.54893,161.002 L1844.97293,161.002 L1844.97293,115.432 L1803.22493,115.432 L1803.22493,161.002 L1777.94093,161.002 L1777.94093,188.932 L1803.22493,188.932 L1803.22493,278.602 C1803.22493,286.246 1804.49893,292.42 1807.04693,297.124 C1809.59493,301.828 1813.07393,305.454 1817.48393,308.002 C1821.89393,310.55 1826.98993,312.265 1832.77193,313.147 C1838.55393,314.029 1844.67893,314.47 1851.14693,314.47 Z M1936.04375,137.482 L1936.04375,103.084 L1894.29575,103.084 L1894.29575,137.482 L1936.04375,137.482 Z M1936.04375,313 L1936.04375,161.002 L1894.29575,161.002 L1894.29575,313 L1936.04375,313 Z M2050.63457,313 L2102.08457,161.002 L2060.63057,161.002 L2028.58457,264.784 L2027.99657,264.784 L1995.95057,161.002 L1952.14457,161.002 L2004.18257,313 L2050.63457,313 Z M2187.2754,316.822 C2204.5234,316.822 2219.2234,312.902 2231.3754,305.062 C2243.5274,297.222 2252.5434,284.188 2258.4234,265.96 L2221.6734,265.96 C2220.3014,270.664 2216.5774,275.123 2210.5014,279.337 C2204.4254,283.551 2197.1734,285.658 2188.7454,285.658 C2176.9854,285.658 2167.9694,282.62 2161.6974,276.544 C2155.4254,270.468 2151.9954,260.668 2151.4074,247.144 L2261.0694,247.144 C2261.8534,235.384 2260.8734,224.114 2258.1294,213.334 C2255.3854,202.554 2250.9264,192.95 2244.7524,184.522 C2238.5784,176.094 2230.6894,169.381 2221.0854,164.383 C2211.4814,159.385 2200.2114,156.886 2187.2754,156.886 C2175.7114,156.886 2165.1764,158.944 2155.6704,163.06 C2146.1644,167.176 2137.9814,172.811 2131.1214,179.965 C2124.2614,187.119 2118.9694,195.596 2115.2454,205.396 C2111.5214,215.196 2109.6594,225.78 2109.6594,237.148 C2109.6594,248.908 2111.4724,259.688 2115.0984,269.488 C2118.7244,279.288 2123.8694,287.716 2130.5334,294.772 C2137.1974,301.828 2145.3314,307.267 2154.9354,311.089 C2164.5394,314.911 2175.3194,316.822 2187.2754,316.822 Z M2219.3214,220.684 L2151.4074,220.684 C2151.6034,217.744 2152.2404,214.412 2153.3184,210.688 C2154.3964,206.964 2156.2584,203.436 2158.9044,200.104 C2161.5504,196.772 2165.0784,193.979 2169.4884,191.725 C2173.8984,189.471 2179.4354,188.344 2186.0994,188.344 C2196.2914,188.344 2203.8864,191.088 2208.8844,196.576 C2213.8824,202.064 2217.3614,210.1 2219.3214,220.684 Z M970.444,623 L970.444,536.27 L1058.35,536.27 L1058.35,500.402 L970.444,500.402 L970.444,451.892 L1071.874,451.892 L1071.874,413.084 L924.286,413.084 L924.286,623 L970.444,623 Z M1147.36282,626.822 C1156.18282,626.822 1164.80682,624.862 1173.23482,620.942 C1181.66282,617.022 1188.52282,610.652 1193.81482,601.832 L1194.69682,601.832 L1194.69682,623 L1234.38682,623 L1234.38682,471.002 L1192.63882,471.002 L1192.63882,550.676 C1192.63882,566.16 1190.09082,577.283 1184.99482,584.045 C1179.89882,590.807 1171.66682,594.188 1160.29882,594.188 C1150.30282,594.188 1143.34482,591.101 1139.42482,584.927 C1135.50482,578.753 1133.54482,569.394 1133.54482,556.85 L1133.54482,471.002 L1091.79682,471.002 L1091.79682,564.494 C1091.79682,573.902 1092.62982,582.477 1094.29582,590.219 C1095.96182,597.961 1098.85282,604.527 1102.96882,609.917 C1107.08482,615.307 1112.71982,619.472 1119.87382,622.412 C1127.02782,625.352 1136.19082,626.822 1147.36282,626.822 Z M1306.64164,623 L1306.64164,413.084 L1264.89364,413.084 L1264.89364,623 L1306.64164,623 Z M1380.07247,623 L1380.07247,413.084 L1338.32447,413.084 L1338.32447,623 L1380.07247,623 Z M1474.67129,626.822 C1483.29529,626.822 1491.77229,625.989 1500.10229,624.323 C1508.43229,622.657 1515.83129,619.766 1522.29929,615.65 C1528.76729,611.534 1534.01029,606.095 1538.02829,599.333 C1542.04629,592.571 1544.05529,584.192 1544.05529,574.196 C1544.05529,567.14 1542.68329,561.211 1539.93929,556.409 C1537.19529,551.607 1533.56929,547.589 1529.06129,544.355 C1524.55329,541.121 1519.40829,538.524 1513.62629,536.564 C1507.84429,534.604 1501.91529,532.938 1495.83929,531.566 C1489.95929,530.194 1484.17729,528.92 1478.49329,527.744 C1472.80929,526.568 1467.76229,525.245 1463.35229,523.775 C1458.94229,522.305 1455.36529,520.394 1452.62129,518.042 C1449.87729,515.69 1448.50529,512.652 1448.50529,508.928 C1448.50529,505.792 1449.28929,503.293 1450.85729,501.431 C1452.42529,499.569 1454.33629,498.148 1456.59029,497.168 C1458.84429,496.188 1461.34329,495.551 1464.08729,495.257 C1466.83129,494.963 1469.37929,494.816 1471.73129,494.816 C1479.17929,494.816 1485.64729,496.237 1491.13529,499.079 C1496.62329,501.921 1499.66129,507.36 1500.24929,515.396 L1539.93929,515.396 C1539.15529,505.988 1536.75429,498.197 1532.73629,492.023 C1528.71829,485.849 1523.67129,480.9 1517.59529,477.176 C1511.51929,473.452 1504.61029,470.806 1496.86829,469.238 C1489.12629,467.67 1481.13929,466.886 1472.90729,466.886 C1464.67529,466.886 1456.63929,467.621 1448.79929,469.091 C1440.95929,470.561 1433.90329,473.109 1427.63129,476.735 C1421.35929,480.361 1416.31229,485.31 1412.49029,491.582 C1408.66829,497.854 1406.75729,505.89 1406.75729,515.69 C1406.75729,522.354 1408.12929,527.989 1410.87329,532.595 C1413.61729,537.201 1417.24329,541.023 1421.75129,544.061 C1426.25929,547.099 1431.40429,549.549 1437.18629,551.411 C1442.96829,553.273 1448.89729,554.89 1454.97329,556.262 C1469.86929,559.398 1481.48229,562.534 1489.81229,565.67 C1498.14229,568.806 1502.30729,573.51 1502.30729,579.782 C1502.30729,583.506 1501.42529,586.593 1499.66129,589.043 C1497.89729,591.493 1495.69229,593.453 1493.04629,594.923 C1490.40029,596.393 1487.46029,597.471 1484.22629,598.157 C1480.99229,598.843 1477.90529,599.186 1474.96529,599.186 C1470.84929,599.186 1466.88029,598.696 1463.05829,597.716 C1459.23629,596.736 1455.85529,595.217 1452.91529,593.159 C1449.97529,591.101 1447.57429,588.455 1445.71229,585.221 C1443.85029,581.987 1442.91929,578.116 1442.91929,573.608 L1403.22929,573.608 C1403.62129,583.8 1405.92429,592.277 1410.13829,599.039 C1414.35229,605.801 1419.74229,611.24 1426.30829,615.356 C1432.87429,619.472 1440.37129,622.412 1448.79929,624.176 C1457.22729,625.94 1465.85129,626.822 1474.67129,626.822 Z M1625.13011,624.47 C1629.24611,624.47 1633.46011,624.372 1637.77211,624.176 C1642.08411,623.98 1646.00411,623.588 1649.53211,623 L1649.53211,590.66 C1647.57211,591.052 1645.51411,591.346 1643.35811,591.542 C1641.20211,591.738 1638.94811,591.836 1636.59611,591.836 C1629.54011,591.836 1624.83611,590.66 1622.48411,588.308 C1620.13211,585.956 1618.95611,581.252 1618.95611,574.196 L1618.95611,498.932 L1649.53211,498.932 L1649.53211,471.002 L1618.95611,471.002 L1618.95611,425.432 L1577.20811,425.432 L1577.20811,471.002 L1551.92411,471.002 L1551.92411,498.932 L1577.20811,498.932 L1577.20811,588.602 C1577.20811,596.246 1578.48211,602.42 1581.03011,607.124 C1583.57811,611.828 1587.05711,615.454 1591.46711,618.002 C1595.87711,620.55 1600.97311,622.265 1606.75511,623.147 C1612.53711,624.029 1618.66211,624.47 1625.13011,624.47 Z M1712.37893,626.822 C1721.78693,626.822 1730.99893,625.45 1740.01493,622.706 C1749.03093,619.962 1756.87093,615.16 1763.53493,608.3 C1763.73093,610.848 1764.07393,613.347 1764.56393,615.797 C1765.05393,618.247 1765.69093,620.648 1766.47493,623 L1766.47493,623 L1808.81093,623 C1806.85093,619.864 1805.47893,615.16 1804.69493,608.888 C1803.91093,602.616 1803.51893,596.05 1803.51893,589.19 L1803.51893,589.19 L1803.51893,510.104 C1803.51893,500.892 1801.46093,493.493 1797.34493,487.907 C1793.22893,482.321 1787.93693,477.96 1781.46893,474.824 C1775.00093,471.688 1767.84693,469.581 1760.00693,468.503 C1752.16693,467.425 1744.42493,466.886 1736.78093,466.886 C1728.35293,466.886 1719.97393,467.719 1711.64393,469.385 C1703.31393,471.051 1695.81693,473.844 1689.15293,477.764 C1682.48893,481.684 1677.00093,486.878 1672.68893,493.346 C1668.37693,499.814 1665.92693,507.948 1665.33893,517.748 L1665.33893,517.748 L1707.08693,517.748 C1707.87093,509.516 1710.61493,503.636 1715.31893,500.108 C1720.02293,496.58 1726.49093,494.816 1734.72293,494.816 C1738.44693,494.816 1741.92593,495.061 1745.15993,495.551 C1748.39393,496.041 1751.23593,497.021 1753.68593,498.491 C1756.13593,499.961 1758.09593,502.019 1759.56593,504.665 C1761.03593,507.311 1761.77093,510.888 1761.77093,515.396 C1761.96693,519.708 1760.69293,522.991 1757.94893,525.245 C1755.20493,527.499 1751.48093,529.214 1746.77693,530.39 C1742.07293,531.566 1736.68293,532.448 1730.60693,533.036 C1724.53093,533.624 1718.35693,534.408 1712.08493,535.388 C1705.81293,536.368 1699.58993,537.691 1693.41593,539.357 C1687.24193,541.023 1681.75393,543.522 1676.95193,546.854 C1672.14993,550.186 1668.22993,554.645 1665.19193,560.231 C1662.15393,565.817 1660.63493,572.922 1660.63493,581.546 C1660.63493,589.386 1661.95793,596.148 1664.60393,601.832 C1667.24993,607.516 1670.92493,612.22 1675.62893,615.944 C1680.33293,619.668 1685.82093,622.412 1692.09293,624.176 C1698.36493,625.94 1705.12693,626.822 1712.37893,626.822 Z M1727.96093,599.186 C1724.62893,599.186 1721.39493,598.892 1718.25893,598.304 C1715.12293,597.716 1712.37893,596.687 1710.02693,595.217 C1707.67493,593.747 1705.81293,591.738 1704.44093,589.19 C1703.06893,586.642 1702.38293,583.506 1702.38293,579.782 C1702.38293,575.862 1703.06893,572.628 1704.44093,570.08 C1705.81293,567.532 1707.62593,565.425 1709.87993,563.759 C1712.13393,562.093 1714.77993,560.77 1717.81793,559.79 C1720.85593,558.81 1723.94293,558.026 1727.07893,557.438 C1730.41093,556.85 1733.74293,556.36 1737.07493,555.968 C1740.40693,555.576 1743.59193,555.086 1746.62993,554.498 C1749.66793,553.91 1752.50993,553.175 1755.15593,552.293 C1757.80193,551.411 1760.00693,550.186 1761.77093,548.618 L1761.77093,548.618 L1761.77093,564.2 C1761.77093,566.552 1761.52593,569.688 1761.03593,573.608 C1760.54593,577.528 1759.22293,581.399 1757.06693,585.221 C1754.91093,589.043 1751.57893,592.326 1747.07093,595.07 C1742.56293,597.814 1736.19293,599.186 1727.96093,599.186 Z M1905.46775,626.822 C1925.65575,626.822 1942.21775,621.53 1955.15375,610.946 C1968.08975,600.362 1975.92975,584.976 1978.67375,564.788 L1938.39575,564.788 C1937.02375,574.196 1933.64275,581.693 1928.25275,587.279 C1922.86275,592.865 1915.16975,595.658 1905.17375,595.658 C1898.70575,595.658 1893.21775,594.188 1888.70975,591.248 C1884.20175,588.308 1880.62475,584.535 1877.97875,579.929 C1875.33275,575.323 1873.42175,570.178 1872.24575,564.494 C1871.06975,558.81 1870.48175,553.224 1870.48175,547.736 C1870.48175,542.052 1871.06975,536.319 1872.24575,530.537 C1873.42175,524.755 1875.43075,519.463 1878.27275,514.661 C1881.11475,509.859 1884.78975,505.939 1889.29775,502.901 C1893.80575,499.863 1899.39175,498.344 1906.05575,498.344 C1923.89175,498.344 1934.18175,507.066 1936.92575,524.51 L1977.79175,524.51 C1977.20375,514.71 1974.85175,506.233 1970.73575,499.079 C1966.61975,491.925 1961.27875,485.947 1954.71275,481.145 C1948.14675,476.343 1940.69875,472.766 1932.36875,470.414 C1924.03875,468.062 1915.36575,466.886 1906.34975,466.886 C1894.00175,466.886 1883.02575,468.944 1873.42175,473.06 C1863.81775,477.176 1855.68375,482.909 1849.01975,490.259 C1842.35575,497.609 1837.30875,506.331 1833.87875,516.425 C1830.44875,526.519 1828.73375,537.446 1828.73375,549.206 C1828.73375,560.574 1830.59575,571.011 1834.31975,580.517 C1838.04375,590.023 1843.23775,598.206 1849.90175,605.066 C1856.56575,611.926 1864.65075,617.267 1874.15675,621.089 C1883.66275,624.911 1894.09975,626.822 1905.46775,626.822 Z M2045.34257,623 L2045.34257,570.668 L2061.51257,555.086 L2103.26057,623 L2153.82857,623 L2090.03057,526.862 L2147.36057,471.002 L2097.96857,471.002 L2045.34257,525.686 L2045.34257,413.084 L2003.59457,413.084 L2003.59457,623 L2045.34257,623 Z" id="CollectiveFullstack" fill="#FFFFFF" fill-rule="nonzero"></path>
            </g>
        </g>
    </g>
</svg>